<?xml version="1.0" standalone="no"?><!DOCTYPE svg PUBLIC "-//W3C//DTD SVG 1.1//EN" "http://www.w3.org/Graphics/SVG/1.1/DTD/svg11.dtd"><svg t="1568274834757" class="icon" viewBox="0 0 1024 1024" version="1.1" xmlns="http://www.w3.org/2000/svg" p-id="3970" xmlns:xlink="http://www.w3.org/1999/xlink" width="128" height="128"><defs><style type="text/css"></style></defs><path d="M948.721 417.615l-378.563-332.143c-32.586-28.645-83.72-28.61-116.279 0l-378.531 332.143c-12.93 11.375-15.141 32.228-4.927 46.582 10.213 14.357 28.585 16.813 41.52 5.475l11.795-10.746 0 401.606c0 56.93 54.036 99.47 101.553 99.47l256.874 0 0-245.532c0-12.222 14.936-18.333 29.871-18.333 14.937 0 29.872 6.111 29.872 18.333l0 245.532 280.763 0c46.958 0 77.663-39.984 77.663-99.47l0-400.049 10.902 9.188c5.496 4.808 12.247 7.13 18.728 7.13 8.809 0 17.651-4.311 23.535-12.604C963.742 449.842 961.684 428.99 948.721 417.615zM840.596 860.532c0 21.985-5.469 33.155-17.927 33.155l-220.43 0c0-0.497-0.597-0.896-0.597-1.391l0-182.435c0-38.562-28.017-80.075-89.608-80.075-61.587 0-89.607 41.514-89.607 80.075l0 182.435c0 0.495 0.807 0.894 0.807 1.391L225.29 893.687c-18.727 0-41.817-17.971-41.817-33.155l0-454.028 307.027-269.005c11.02-9.685 30.914-9.685 41.967 0l308.129 270.563L840.596 860.532z" p-id="3971"></path></svg>