<?xml version="1.0" standalone="no"?><!DOCTYPE svg PUBLIC "-//W3C//DTD SVG 1.1//EN" "http://www.w3.org/Graphics/SVG/1.1/DTD/svg11.dtd"><svg t="1568274661323" class="icon" viewBox="0 0 1024 1024" version="1.1" xmlns="http://www.w3.org/2000/svg" p-id="2446" xmlns:xlink="http://www.w3.org/1999/xlink" width="128" height="128"><defs><style type="text/css"></style></defs><path d="M773 290.4C773 130.3 642.7 0 482.6 0S192.1 130.3 192.1 290.4c0 101.5 52.5 190.7 131.6 242.6C149.3 597.9 24.5 765.5 24.5 962.1c0 6.4 0.4 12.7 0.8 19.1l0.4 6.4c1.2 20.4 18.1 36.2 38.3 36.2 0.7 0 1.4 0 2.2-0.1 21.2-1.2 37.4-19.3 36.2-40.4l-0.4-7.3c-0.3-4.6-0.7-9.2-0.7-13.9 0-210.2 171-381.3 381.2-381.3 160.2 0.1 290.5-130.2 290.5-290.4zM482.6 504.1c-117.8 0-213.6-95.8-213.6-213.7 0-117.8 95.8-213.6 213.6-213.6s213.7 95.8 213.7 213.6c0 117.9-95.9 213.7-213.7 213.7zM774.7 686.9c-32.9-8.7-67.8 0-92.9 24-25.7 24.5-35.8 62.4-25.8 96.4 9.7 33.2 35.3 58.4 68.4 67.2 8.4 2.2 16.9 3.4 25.2 3.4 24.7 0 48.8-9.5 67.5-27.3v-0.1c25.7-24.5 35.8-62.4 25.9-96.4-9.8-33.2-35.3-58.3-68.3-67.2zM764.1 795c-7.6 7.1-15.6 6.4-19.9 5.3-4.1-1.1-11.6-4.5-14.6-14.6-1.9-6.5 0.2-14.6 5.1-19.2 5.1-4.8 10.3-6.1 14.5-6.1 2.2 0 4.1 0.4 5.5 0.7 4.1 1.1 11.6 4.5 14.5 14.6 2 6.5-0.2 14.6-5.1 19.3z" p-id="2447"></path><path d="M980.8 699.2c-0.1-0.1-0.1-0.1-0.2-0.1-11.3-11.4-26.4-18-39.1-18.5l-10.7-1.4c-0.9-1.6-1.9-3.2-2.8-4.9l2.8-6.9c15.7-30.6 4.6-68.1-25.1-85.1l-62.6-36.2c-29.9-17.3-67.8-8-84.4 18.1l-6.7 8.6h-5.6l-4.6-5.8c-18.6-29-56.6-38.2-86.3-20.9l-62.6 36.1c-29.9 17.1-41 54.6-26.6 82.1l4.1 10.1c-0.9 1.6-1.8 3.1-2.7 4.7l-7.5 1.1c-34.4 1.7-61.2 30-61.1 64.3v72.4c0.1 34.3 27 62.4 57.9 63.9l10.7 1.4c0.9 1.6 1.9 3.2 2.8 4.9l-2.7 6.7c-15.9 30.6-4.8 68.1 25 85.2l62.6 36.2c10.4 6 21.7 8.7 32.7 8.7 20.8 0 40.7-9.8 51.7-26.9l6.6-8.6c1.9 0.1 3.6 0.1 5.6 0l4.5 5.8c18.6 29 56.6 38.2 86.3 21l62.6-36.1c29.9-17.1 40.9-54.5 26.6-82.2l-4.2-10.1c0.9-1.6 1.9-3.1 2.7-4.7l7.3-1c34.6-1.6 61.5-29.9 61.3-64.2v-72.3c0.4-17.1-6.2-33.2-18.3-45.4z m-58.1 106.6l-22.5 3.1c-13.4 1.9-24.9 10.6-30.2 23.1-4.1 9.6-9.4 18.8-15.9 27.5-8.1 10.8-9.9 25.1-4.8 37.6L858 918l-43.7 25.2-13.9-17.9c-8.4-10.7-21.8-16.2-35.1-14.6-10.6 1.4-21.2 1.3-31.9 0.1-13.3-1.8-26.6 4-34.9 14.6l-13.7 17.9-43.8-25.2 8.6-20.9c5.2-12.6 3.2-27.1-5.1-37.9-6.3-8.2-11.6-17.4-15.6-26.9-5.2-12.6-16.8-21.6-30.3-23.4l-22.4-2.9v-50.4l22.5-3.1c13.4-1.9 24.8-10.6 30.1-23 4.1-9.7 9.5-18.9 15.9-27.4 8.2-10.8 10.1-25.1 4.9-37.7l-8.7-21 43.7-25.2 13.9 17.9c8.4 10.7 21.1 16.2 35.1 14.6 10.6-1.4 21.2-1.3 31.6-0.1 13.7 1.6 26.8-3.9 35.1-14.6l13.9-18 43.7 25.2-8.6 20.9c-5.2 12.6-3.3 27.1 5 37.9 6.4 8.3 11.7 17.4 15.6 26.9 5.2 12.6 16.7 21.5 30.3 23.4l22.5 3v50.4z" p-id="2448"></path></svg>